<svg xmlns="http://www.w3.org/2000/svg" viewBox="0 0 220 173"><defs><style>.cls-1{fill:#00a99d;}.cls-2{fill:#fff;}</style></defs><title>Asset 1</title><g id="Layer_2" data-name="Layer 2"><g id="Layer_1-2" data-name="Layer 1"><rect class="cls-1" x="34" width="152" height="173" rx="40" ry="40"/><rect class="cls-1" y="45" width="220" height="31"/><rect class="cls-1" y="102" width="220" height="31"/><path class="cls-2" d="M76.39,132.42A60.1,60.1,0,0,0,106.81,141c17.35,0,27.49-9.16,27.49-22.42,0-12.29-7-19.31-24.76-26.13C88.09,84.84,74.83,73.73,74.83,55.2c0-20.48,17-35.69,42.51-35.69,13.45,0,23.2,3.12,29,6.44l-4.68,13.84a52.33,52.33,0,0,0-25-6.24C98.81,33.55,92,44.28,92,53.25c0,12.29,8,18.33,26.13,25.35,22.23,8.58,33.54,19.31,33.54,38.61,0,20.28-15,37.83-46,37.83-12.68,0-26.52-3.7-33.54-8.38Z"/></g></g></svg>